<svg xmlns="http://www.w3.org/2000/svg" xmlns:xlink="http://www.w3.org/1999/xlink" viewBox="0 0 560.98 90.43"><defs><style>.cls-1{fill:none;}.cls-2{fill:#fff;}.cls-3{fill:#1b181c;}.cls-4{fill:#f9bb24;}.cls-5{fill:#0a7d36;}.cls-6{fill:#0ba3d6;}.cls-7{clip-path:url(#clip-path);}</style><clipPath id="clip-path" transform="translate(0 -2.52)"><polygon class="cls-1" points="4.22 87.98 83.84 90.42 83.84 0 4.22 2.44 4.22 87.98"/></clipPath></defs><title>Element 3</title><g id="Ebene_2" data-name="Ebene 2"><g id="Ebene_1-2" data-name="Ebene 1"><rect class="cls-2" width="560.98" height="90.43"/><path class="cls-3" d="M557.26,72.69c-.2-.3-.3-.6-.6-.6-.6,0-5.8,4.1-12.29,4.1-11.4,0-13.8-11-13.8-17.1h28.69c1.1,0,1.1-.8,1.1-2.2,0-8.59-1.5-24.79-18.19-24.79-12.4,0-19.8,10.7-19.8,25.39,0,15.2,7.8,25.29,21.1,25.39,7.39,0,15.79-4.1,15.79-5.19,0-.3-.2-.5-.3-.8Zm-26.69-19.8c0-5,2-14.59,11.2-14.59,8.69,0,10.39,9.4,10.39,14.59ZM513.88,47.1c0-7.2-.8-15-11.9-15-7.59,0-12.79,4.2-16.09,6.8-.1-.8-1.3-6.8-3.1-6.8-.3,0-.6.3-.8.4l-4.5,2.5c-.4.3-.5.5-.5.7,0,.5.8,1.2,1.6,4.2.4,1.5.4,2.6.4,5.9V80.28a1.06,1.06,0,0,0,1.2,1.2h5.2a1.06,1.06,0,0,0,1.2-1.2V44.9c2.5-2.2,6.7-6.1,13.19-6.1,5.4,0,6.5,3.8,6.5,8.1V80.28a1.06,1.06,0,0,0,1.2,1.2h5.2a1.06,1.06,0,0,0,1.2-1.2Zm-59,.2c2.4-2.6,5.9-7.8,9.4-7.8,1.9,0,2.8.9,3.3.9s.5-.5.6-.7l2.2-5.1a4.12,4.12,0,0,0,.3-.8c0-.9-2.6-1.7-4.9-1.7-5.8,0-9.4,5.6-12,8.4-.4-2.2-2.1-8.4-3.9-8.4a2.26,2.26,0,0,0-1,.5l-3.7,2.3a1.38,1.38,0,0,0-.69,1,7.63,7.63,0,0,0,1.09,2.5,16.74,16.74,0,0,1,1.7,7.6V80.28a1.06,1.06,0,0,0,1.2,1.2h5.2a1.06,1.06,0,0,0,1.2-1.2ZM432.61,72.69c-.2-.3-.3-.6-.6-.6-.6,0-5.8,4.1-12.3,4.1-11.39,0-13.79-11-13.79-17.1h28.69c1.1,0,1.1-.8,1.1-2.2,0-8.59-1.5-24.79-18.19-24.79-12.4,0-19.8,10.7-19.8,25.39,0,15.2,7.8,25.29,21.1,25.39,7.39,0,15.79-4.1,15.79-5.19,0-.3-.2-.5-.3-.8Zm-26.69-19.8c0-5,2-14.59,11.2-14.59,8.69,0,10.39,9.4,10.39,14.59ZM379.83,49.4V80.28a1.06,1.06,0,0,0,1.2,1.2h5.8a1.06,1.06,0,0,0,1.2-1.2V14.21a1.06,1.06,0,0,0-1.2-1.2H381a1.06,1.06,0,0,0-1.2,1.2V42.4H354.14V14.21a1.06,1.06,0,0,0-1.2-1.2h-5.8a1.06,1.06,0,0,0-1.2,1.2V80.28a1.06,1.06,0,0,0,1.2,1.2h5.8a1.06,1.06,0,0,0,1.2-1.2V49.4ZM317.06,74.09a.67.67,0,0,0-.7-.6c-.9,0-4.9,2.7-9.6,2.7-6,0-6-4.1-6-8.1V39.7H314a1.42,1.42,0,0,0,1.3-.9l1.3-3.9c0-.3.1-.5.1-.7,0-.6-.5-.7-1.1-.7h-14.8V18.11c0-.6,0-1.1-.5-1.1-.2,0-.4.1-.7.1l-5.3,1.5c-.7.2-1.1.6-1.1,1.2V33.5h-7.49c-.7,0-.7.5-.7,1.2v3.8c0,.5,0,1.2.7,1.2h7.49V68.09c0,3.7,0,8.2,2.9,11.29,1.5,1.9,5.1,3.5,9.4,3.5,5.4,0,12.89-2.8,12.89-4.1a4.23,4.23,0,0,0-.2-1ZM276.75,10.41c0-.5,0-1.3-.8-1.3a6,6,0,0,0-1.2.2l-4.89,1.2c-.4.1-.7.5-.7,1.2V35.5a21,21,0,0,0-12.3-3.4c-11.6,0-16.69,12-16.69,26.39,0,12.4,4.89,24.39,15.59,24.39,7.4,0,12.3-4.2,14.7-5.89.39,1.59,2.19,5.89,3.59,5.89a2,2,0,0,0,.8-.3l3.9-2.4c.4-.2.9-.4.9-.8,0-.6-1.3-2.49-1.8-3.69-1.1-2.5-1.1-5.5-1.1-10Zm-7.59,59.88c-2.4,1.5-6.8,5.9-12,5.9-8.1,0-8.8-9.5-8.8-17.9,0-9.69.8-19.49,9.4-19.49,5,0,8.2,1.6,11.4,3.3Zm-47.59.2c-1.6,1.4-6.19,6.2-11.39,6.2s-7.3-4.5-7.3-8.5c0-10.5,14.3-10.5,18.69-10.6Zm7.6-24.39c0-8.4-3.9-14-15.39-14-6.4,0-15.6,2.9-15.6,4.6a3.08,3.08,0,0,0,.3,1.3l1.3,3.5a.75.75,0,0,0,.7.5c.9,0,5.5-3.2,12.2-3.2,7.09,0,8.89,3.2,8.89,9v3.6c-6.19.19-26.19.49-26.19,17.39,0,8.9,5.1,14.09,13,14.09,8.3,0,13.19-5.59,14.39-6.69.5,1.4,2.3,6.69,3.8,6.69a2,2,0,0,0,.8-.3l3.9-2.4c.4-.2.9-.4.9-.8,0-.6-1.4-2.49-1.8-3.69-.9-2.8-1.2-3.7-1.2-10Zm-40.78,28a.67.67,0,0,0-.7-.6c-.9,0-4.9,2.7-9.6,2.7-6,0-6-4.1-6-8.1V39.7h13.2a1.42,1.42,0,0,0,1.3-.9l1.3-3.9c0-.3.1-.5.1-.7,0-.6-.5-.7-1.1-.7h-14.8V18.11c0-.6,0-1.1-.5-1.1-.2,0-.4.1-.7.1l-5.29,1.5c-.7.2-1.1.6-1.1,1.2V33.5H157c-.7,0-.7.5-.7,1.2v3.8c0,.5,0,1.2.7,1.2h7.5V68.09c0,3.7,0,8.2,2.9,11.29,1.49,1.9,5.09,3.5,9.39,3.5,5.4,0,12.9-2.8,12.9-4.1a4.23,4.23,0,0,0-.2-1ZM148.8,18.21a8.4,8.4,0,0,0,.4-1.2,1.56,1.56,0,0,0-.8-1.1,34.6,34.6,0,0,0-15.79-4.3c-10.4,0-19.89,6.4-19.89,17.89,0,20.7,29.19,18.2,29.19,34.79,0,6.7-4.4,11.4-11.9,11.4-7,0-13.1-3.3-15.09-4.2a3,3,0,0,0-1.4-.5c-.6,0-.8.5-1.1,1.3l-1.3,3.3a8.4,8.4,0,0,0-.4,1.2,1.17,1.17,0,0,0,.8,1.1c1.5.69,8.89,5,18.19,5,12.2,0,21.19-7.39,21.19-19.59,0-6.6-2.7-11.3-8.1-15.69-8-6.6-21.09-8.5-21.09-19,0-6.69,4.6-9.79,10.6-9.79A28.56,28.56,0,0,1,145,22.31a3,3,0,0,0,1.4.5c.7,0,.7-.5,1.1-1.3Z" transform="translate(0 -2.52)"/><path class="cls-4" d="M45.16,92.4A44.62,44.62,0,1,0,.55,47.78,44.62,44.62,0,0,0,45.16,92.4" transform="translate(0 -2.52)"/><path class="cls-5" d="M88.25,60a38.22,38.22,0,0,0,1.53-12.18A44.62,44.62,0,1,0,15.25,80.9c-.31,0,72.75-20.54,73-20.94" transform="translate(0 -2.52)"/><path class="cls-6" d="M64.47,7.54S49.16-.22,33.12,4.74s-22.61,15-22.61,15S9.31,21.28,6,26.26A40.23,40.23,0,0,0,2.7,34l74.62-17.2a29.05,29.05,0,0,0-5.09-4.77,45,45,0,0,0-7.76-4.53" transform="translate(0 -2.52)"/><g class="cls-7"><path class="cls-2" d="M54.93,42.83c.73.12,1.89,0,3.16,0a20.66,20.66,0,0,1,2.38.2,11,11,0,0,1,2.79.58,11,11,0,0,1,2.25,1.28c.5.37,1,.91,1.44,1.33s.6.82,1,.82a14.17,14.17,0,0,0,2.39-.6,7.56,7.56,0,0,1,1.69-.52c.14,0,.67.11.81.11.3,0,.38-.17.88-.37a5.62,5.62,0,0,1,2-.4,7,7,0,0,1,3.68,1,7.12,7.12,0,0,1,2.3,3.82,6,6,0,0,1,.32,1.78,13.24,13.24,0,0,1-.24,2.51c-.37.89-.53,1.93-1,2.83a13.37,13.37,0,0,1-1,1.84c-1.51,2-2.37,3.75-2.37,5.87A40.75,40.75,0,0,0,78,69c0,.86-1.37,2.68-2.08,2.74h-.25c.11-.26.27-.4.27-.63,0-1,.06-1.09.06-1.22s-.18-.6-.21-.86c-.18-1.18-1.67-2.39-2.55-3.52a13.88,13.88,0,0,1-1.39-2.47,12.64,12.64,0,0,1-.61-1.15,9.67,9.67,0,0,1-.39-1.47,11.19,11.19,0,0,1-.19-1.54c0-2.51,2.39-3.3,2.39-5.53a2.39,2.39,0,0,0-.2-1A1.67,1.67,0,0,0,71,51.28a8.3,8.3,0,0,0-1.86.18c-.21.07-.07.51-.09.69,0,.64-.11,1.37-.21,1.94a15.07,15.07,0,0,1-.5,2.9c-.3.8-.53,1.63-.87,2.44-.2.51-.46,1-.63,1.56s-.28,1-.44,1.55a3,3,0,0,0-.07.69A7,7,0,0,0,69,67.8a3.57,3.57,0,0,1,1.07,1.68c0,.33-.74,1.09-.76,1.17s0,.3-.09.4-.34.46-.47.72,0,.52-.09.78c-.2.52-.84.61-1.33.75s-.79.71-1.17,1.14c-.88,1-1.9,1.77-2.75,2.78-.37.45-1.06,1.14-1.06,1.65,0,.14.22.75.22.89,0,.36-.16.41-.57.86h-.31c-.07-.18,0-.78-.45-.78a.78.78,0,0,0-.67.75c0,.14.17.42.17.56s-.29.64-.48.69c-.13-.17,0-.54-.32-.55a4.28,4.28,0,0,1-1.07,1,1,1,0,0,1-.09-.4c-.09-.11-.18-.1-.32-.1A1.12,1.12,0,0,0,57.35,83c0,.5.44.28.53,1,0,0,0,.14,0,.28s.22.78.22.92c0,1.32-3,2.95-3.63,3.12a3.76,3.76,0,0,1-.55.17.32.32,0,0,1-.24.1h-.93c-.14,0-.41-.27-.52-.46a1.09,1.09,0,0,1-.07-.46c0-.14.2-1.63.34-2.39a1.33,1.33,0,0,1,.29-.57c.22-.29.75-.18,1.11-.31a3,3,0,0,0,1.2-.61c-.1,0-.14-.15-.28-.15s-.16,0-.17.11H53.05a2.67,2.67,0,0,1-.68-.34.94.94,0,0,1,0-.27c0-.14.11-.75.13-1.15a7.66,7.66,0,0,0,1.13-1.17c.47-.69.82-2,1.92-2.14l.17-.13a8.33,8.33,0,0,1,1.12-.28,4.13,4.13,0,0,0,1.12-.34,5.87,5.87,0,0,0,1.73-1.34,9.38,9.38,0,0,0,1.38-1.94A18.16,18.16,0,0,0,62.29,72V69.86c0-.68-1.48-1.47-2-1.88a5.19,5.19,0,0,1-1.25-1.65c-.18-.35-.34-1-.5-1.34a8.1,8.1,0,0,0-.88-1.66,12.79,12.79,0,0,0-2.6-2.27c-.14,0-.12,0-.16.1a3.08,3.08,0,0,1-1.52,1.69c-.1,0-.16.23-.28.3-.86.51-2.37,2.52-2.37,3.36C50.74,68,52,67.65,52,69.59c0,1.47-.79,1.28-1.87,2a6.87,6.87,0,0,1-2.59,1.37.21.21,0,0,0-.07.07,13.45,13.45,0,0,1-1.44.14c-.14,0-1-.06-1.45-.14,0,0,0-.08-.14-.08a8.27,8.27,0,0,0-2.51.56c-.56.31-.43,1.22-1.21,1.22-.14,0-.49-.29-.64-.45-.2.16-.55.26-.74.49a1.83,1.83,0,0,0-.26.59,10.19,10.19,0,0,0-1.32.56,1.17,1.17,0,0,1-.8.19c-.27-.12-.14-.42-.2-.62s-.25-.21-.51-.21c-.45,0-1.31.16-1.31.86,0,.49,1,1.68,1,2.2s-.16.56-.59,1.1a6.68,6.68,0,0,1-1.59,1.3c-.12.07-.22.28-.34.35-.32.2-.64.46-.94.67a4.84,4.84,0,0,1-1.41.58,1.17,1.17,0,0,1-.79-.65,3.66,3.66,0,0,1-.07-.69,1.17,1.17,0,0,1,.08-.58c.39-.52.37-1.49.61-2,.11-.23.48-.38.73-.5a2.71,2.71,0,0,0,1-.48l-.09-.09a4.92,4.92,0,0,1-1.58.56c-.48,0-.5-.75-.5-1a6.67,6.67,0,0,1,1.79-3.62c.3-.25.86-.21,1.23-.32.73-.22,1.51-.45,2.28-.72.62-.22,1.31-.52,1.95-.8.47-.21,1.07-.36,1.6-.65.8-.43,1.57-.9,2.39-1.44.27-.18,1.41-1.26,2-1.26.4,0,.8.72.94.72a.22.22,0,0,0,.2-.09v-.17c0-.14-.91-1-.92-1a2,2,0,0,1-.74-.31,6.69,6.69,0,0,1-2.23-4.12A4,4,0,0,1,43,60a15.22,15.22,0,0,0,1.6-.64c.64-.37,1.25-1,2-1.52A5,5,0,0,0,48,56.93a2.67,2.67,0,0,0-.56,0c-.14,0-.8.11-1.19.11-2.06,0-3-.11-3.09-.11s-1.83.22-2,.22a13,13,0,0,1-4.41-1.44c-.17-.15-.54-.12-.72-.26a2.74,2.74,0,0,1-.8-1.15c0-.06-.15-.11-.19-.21-1,.48-1,.84-1.71.84a10.64,10.64,0,0,1-1.17-.06,4.3,4.3,0,0,1-1.5-.47c-.31-.15-.62-.37-1-.55,0,0-.76-.87-1.05-.87h-1a13.42,13.42,0,0,1-2-.75,14.88,14.88,0,0,1-1.9-1c-.55-.35-1.32-1.36-1.85-1.36-.14,0-.58.32-.86.33a3.15,3.15,0,0,1-.84-.05,2.32,2.32,0,0,0-1,.34,19.25,19.25,0,0,0-1.6,2.41v1.32a.9.9,0,0,1-.18.48h-.19c-.18-.17-.3-.39-.43-.39s-.42.75-.42.78.55.9.55,1v.72c-.06.07-.08.08-.22.08s-.32-.17-.42-.23-.14.1-.18.15a2.36,2.36,0,0,1-.25,1.24c-.37,0-.19-.36-.47-.56a2.56,2.56,0,0,0-1-.38c-.52,0-.5.48-.5.66,0,.69.48.72.92,1.42a5.14,5.14,0,0,1,.37.93s.09.16.13.18a3.73,3.73,0,0,1,.2.78,1.49,1.49,0,0,1-.27.63c-.1.14-.14.42-.26.61a10.38,10.38,0,0,1-1.65,1.74,4.26,4.26,0,0,1-2.08,1.22c-.22,0-.63-.14-.63-.48a.29.29,0,0,1,.09-.23c0-.43,0-1.21,0-1.35s.06-1,.07-1.49a8.16,8.16,0,0,0,1.82-1.48s0-.14-.17-.14a6.18,6.18,0,0,0-1.25.69.6.6,0,0,1-.36.09c-.55,0-.66-.38-.66-.75,0-.58.33-1.09.33-1.5V57.47a3.56,3.56,0,0,1,.84-2.22c.4-.33.88-.71,1.28-1a8.34,8.34,0,0,0,.78-.48,3.49,3.49,0,0,0,.53-.69c.56-1,1.29-2,1.81-3.06.17-.35.49-.75.63-1.11a8.17,8.17,0,0,0,.2-1.22,2.78,2.78,0,0,1,.17-.56,3,3,0,0,1,.56-1c.56-.48,1.33-.56,2-1.12a1.3,1.3,0,0,1,.64-.18,3.63,3.63,0,0,1,.91.18c.54.23,1.1.64,1.69.85a13.09,13.09,0,0,0,2.38.52,2.38,2.38,0,0,0,1.3-.19,3.24,3.24,0,0,1-1-.89c-.14-.21,0-.6-.34-.8s-.52,0-.72-.08A8.05,8.05,0,0,1,21.68,43c-.69-.74-.72-1.44-1.48-2.14-.08-.07-.06-.35-.23-.43a4.33,4.33,0,0,0-1.32-.29c-.69,0-1.07,1-1.56,1.49a6.29,6.29,0,0,0-.79.83c-.29.41-.48.92-.76,1.32-.11.16-.34.17-.47.3s0,.27,0,.43c-.12.42-.42.89-.6,1.35h-.23c-.14,0-.14-.12-.18-.16-.49.11-.08.81-.6,1.11-.37-.09-.39-.78-.84-.78s-.86.81-.86,1,0,.18.06.25.45.26.65.41A5,5,0,0,1,13.56,50c0,.81-1.36,1.67-2,2.31a8.17,8.17,0,0,1-1,.72,3.24,3.24,0,0,1-1.18.41,1.46,1.46,0,0,1-.51-.19c-.13-.77-.35-2.17-.35-2.31,0-1.26.29-1,1.72-2.19-.05,0,0,0-.11,0s-1.14.45-1.28.45c-.4,0-.66-.2-.66-.59a2.45,2.45,0,0,1,.18-.77c.16-.37.39-.79.58-1.13.33-.64.17-1.4.5-1.94.06-.12.14-.37.31-.45,1.48-.71,3.26-1.56,4.06-3.11,0-.06.15-.11.18-.17a12.74,12.74,0,0,1,.82-1.49c.45-.68,1.47-1.55,1.49-2.44a.13.13,0,0,0,.08-.07c.22-.71,1-.88,1.48-1.14.86-.46.61-.48,1.29-.48s.43,0,1.29.42c.15.07.4.07.61.15a5.65,5.65,0,0,1,1,.5,4.27,4.27,0,0,0,.74.46c.26.11.57.16.81.26s.63.38,1,.49a1.35,1.35,0,0,0,.3-.43c.16-.38.34-.94.55-1.34a4.66,4.66,0,0,0,.44-1.05,4.18,4.18,0,0,1,1.37-2c.19-.16.48-.18.66-.37s.23-.55.34-.79a11.62,11.62,0,0,1,1-1.61c.43-.61.67-1.71,1.61-2.05.12,0,.22-.21.38-.29.38-.19.79-.3,1.17-.48a10.2,10.2,0,0,0,1.39-.67,5.69,5.69,0,0,0,1.58-1.41c.11-.2,0-.6,0-.74,0-.43,1.29-1.2,1.34-1.24A1.06,1.06,0,0,0,37,22.8a.24.24,0,0,0-.2-.17,3.16,3.16,0,0,0-.5-.07h-.93c-1.1,0-1.81-.95-3-.95-3.15,0-1.39,1.61-4.09,1.61-.39,0-.48-.15-1-.37s-1.07,0-1.55-.09A5.45,5.45,0,0,1,24.9,21c0-.52,1.24-.72,1.45-.82-.34-.62-1.19-.37-1.71-.54a2.3,2.3,0,0,1-.39-.57c-.08-.13,0-.39-.09-.59s-.41-.22-.59-.4a4,4,0,0,1-.34-.6v-.69c.12-.17.16-.41.3-.62s.64-.75.85-1.11c.12-.19.21-.52.37-.76s.2-.32.34-.35a13.46,13.46,0,0,1,2.62-.73c.65,0,1.36.55,2,.55A17.57,17.57,0,0,0,33,12.85c.6-.28,1.63-.3,1.87-1.11A1,1,0,0,1,35,11.4a3.41,3.41,0,0,1,.84-.72,1.59,1.59,0,0,1,.64-.12,2.09,2.09,0,0,1,.75.12,2.43,2.43,0,0,0,1.28.21c.17,0,.39.11.71.17,0,0,0,0,0-.09s-.83-.7-.83-1.55c0-.14.5-1.78.5-1.92s-.11-.75-.11-.89c0-.33,0-.5.36-.5.8,0,1.52.92,1.95,1.75.2.39.12,1.36.85,1.36.38,0,.67-.49.67-.64s-.33-.54-.44-.9c0,0,0-.07.13-.07.45,0,1,1,1,1.22,0,.81-.56.52-.72,1.52,0,.05,0,0,.11,0s.17-.12.29-.2c.59-.42.93-.54.93-1.13,0-.14-.16-.56-.16-.7s0-.11.06-.19.08-.06.21-.06.67.81.67.81v1.32s0,0,.09,0c.47,0,.63-.68.63-1a3.05,3.05,0,0,0-.11-.61.22.22,0,0,0,.07-.13h.19c.18.17.48.37.55.57a4.71,4.71,0,0,1,.08.88s0,0,.09,0a16,16,0,0,1,1.69-.44c.14,0,.19.06.26.06s.07,0,.07.16c0,.45-.62.21-.72.57.2,0,.47,0,1.2,0,.21,0,.41.07.41.28,0,.39-1.37.29-1.56,1,0,0,0,0,.09,0s1.22-.16,1.36-.16,1.33.16,1.33.63c0,.25-.32.25-.44.25s-.75-.11-.89-.11-.5,0-.5.23.29.27.37.27h.82a2.09,2.09,0,0,1,.84.46c0,.06,0,0,0,.18a.34.34,0,0,1-.13.31H49.16a2.66,2.66,0,0,0-.65.19c1.31.53,3.4.39,4.23,2.29-.07.07-.2.07-.81.07-.16,0-.75.22-.75.5s.51.17.59.17h1.06a1.7,1.7,0,0,1,.18.26c-.44.19-.94.13-1.27.54.2,0,.43,0,.62.05a6.2,6.2,0,0,1,.75.33c.1.05.68.69.68,1,0,.13,0,.16-.06.23a1.65,1.65,0,0,1-.58,0c-.52,0-.77.64-.8.85.21.15.53.17.75.39a1.79,1.79,0,0,1,.41.74v.34a3.22,3.22,0,0,1-.69,0c-.24,0-.55.57-.64.75v.14c.1.05.25,0,.39,0a.94.94,0,0,1,.49.26c.57.52.9.91.9,1.41,0,.25-.05.44-.31.44s-.55-.11-.69-.11c-.64,0-.84.22-1.28,1,.23.31.61.19.93.39a1.42,1.42,0,0,1,.5.85c0,.21.18.63.18.77s0,.16-.06.24h-.42a2.32,2.32,0,0,0-1-.33c-.6,0-.54.29-1.31.71.17.28.5.07.76.14a2.26,2.26,0,0,1,.83.8,5.65,5.65,0,0,1,.3,1.13c0,.14,0,.09,0,.15s-.06.07-.2.07-.59-.5-1.08-.5-1,.63-1.12.72a.1.1,0,0,1-.05.08c1,.28,1.39.56,1.39,1.2a3.83,3.83,0,0,1-.35,1c-.38-.27-.36-.45-.59-.45a7.36,7.36,0,0,0-1.73,1v.14c.67.37,1.23.1,1.23.9a2.13,2.13,0,0,1-.19.74.79.79,0,0,1-.34.23c-.31-.11-.42-.44-.7-.44a4.82,4.82,0,0,0-1.07.34.78.78,0,0,0-.26.29c.48.48,1.06.58,1.06,1.23a1,1,0,0,1-.64.92c-.3-.27-.12-.38-.4-.84h-.82c-.14,0,0,0-.06.09-.54.33-1.53,0-1.53,1,0,.6,1.86,1.77,2.1,1.9a25.31,25.31,0,0,0,3.5,1.39c.69.25,1.46.36,2.14.64a13.43,13.43,0,0,0,2.29.7" transform="translate(0 -2.52)"/></g></g></g></svg>